<svg width="25" height="20" viewBox="0 0 25 20" fill="none" xmlns="http://www.w3.org/2000/svg">
<path fill-rule="evenodd" clip-rule="evenodd" d="M17.2046 0C17.9009 2.22683e-05 18.5835 0.182511 19.1758 0.527022C19.7681 0.871534 20.2468 1.36446 20.5583 1.95059L22.2908 5.21059C22.5958 5.09294 22.8958 4.96588 23.1908 4.82941C23.4875 4.68994 23.8309 4.66711 24.1455 4.76596C24.4601 4.8648 24.72 5.07721 24.8682 5.35647C25.0164 5.63573 25.0407 5.95895 24.9356 6.25504C24.8306 6.55113 24.6049 6.79582 24.3082 6.93529C24.0078 7.06115 23.7057 7.18351 23.402 7.30235L24.6032 9.56471C24.864 10.0552 24.9996 10.5962 24.9995 11.1447V14.1176C24.9995 14.6142 24.8881 15.1052 24.6727 15.5585C24.4573 16.0118 24.1427 16.4172 23.7495 16.7482V18.2353C23.7495 18.7033 23.552 19.1522 23.2003 19.4831C22.8487 19.8141 22.3718 20 21.8745 20C21.3773 20 20.9004 19.8141 20.5487 19.4831C20.1971 19.1522 19.9996 18.7033 19.9996 18.2353V17.6471H4.9999V18.2353C4.9999 18.7033 4.80236 19.1522 4.45073 19.4831C4.09911 19.8141 3.62221 20 3.12493 20C2.62766 20 2.15076 19.8141 1.79914 19.4831C1.44751 19.1522 1.24997 18.7033 1.24997 18.2353V16.7482C0.48249 16.1012 0 15.1624 0 14.1176V11.1435C0.000233594 10.5958 0.135892 10.0557 0.396242 9.56588L1.58747 7.32118C1.28581 7.20196 0.987896 7.07373 0.693736 6.93647C0.398531 6.79518 0.174133 6.55038 0.0689143 6.25482C-0.0363047 5.95927 -0.0139184 5.63664 0.131247 5.35647C0.204569 5.21815 0.306134 5.09479 0.430137 4.99343C0.554139 4.89207 0.698149 4.81471 0.853934 4.76576C1.00972 4.71681 1.17423 4.69724 1.33805 4.70816C1.50188 4.71909 1.66181 4.76029 1.80871 4.82941C2.10454 4.96667 2.40453 5.09373 2.70869 5.21059L4.44116 1.95176C4.75246 1.36542 5.2311 0.87225 5.82344 0.527523C6.41578 0.182796 7.09841 0.000131511 7.79484 0H17.2046ZM6.87486 10.5882C6.37759 10.5882 5.90068 10.7742 5.54906 11.1051C5.19743 11.4361 4.9999 11.8849 4.9999 12.3529C4.9999 12.821 5.19743 13.2698 5.54906 13.6008C5.90068 13.9317 6.37759 14.1176 6.87486 14.1176C7.37213 14.1176 7.84903 13.9317 8.20065 13.6008C8.55228 13.2698 8.74982 12.821 8.74982 12.3529C8.74982 11.8849 8.55228 11.4361 8.20065 11.1051C7.84903 10.7742 7.37213 10.5882 6.87486 10.5882ZM18.1246 10.5882C17.6274 10.5882 17.1504 10.7742 16.7988 11.1051C16.4472 11.4361 16.2497 11.8849 16.2497 12.3529C16.2497 12.821 16.4472 13.2698 16.7988 13.6008C17.1504 13.9317 17.6274 14.1176 18.1246 14.1176C18.6219 14.1176 19.0988 13.9317 19.4504 13.6008C19.802 13.2698 19.9996 12.821 19.9996 12.3529C19.9996 11.8849 19.802 11.4361 19.4504 11.1051C19.0988 10.7742 18.6219 10.5882 18.1246 10.5882ZM17.2046 2.35294H7.79484C7.5891 2.35291 7.38654 2.40068 7.20512 2.49201C7.0237 2.58333 6.86904 2.71539 6.75486 2.87647L6.67736 3.00353L5.08989 5.98941C7.02485 6.53529 9.6323 7.05882 12.4997 7.05882C15.1772 7.05882 17.6259 6.60235 19.5121 6.09765L19.9083 5.98941L18.3221 3.00353C18.2301 2.83037 18.0942 2.68126 17.9263 2.56941C17.7584 2.45756 17.5637 2.38644 17.3596 2.36235L17.2059 2.35294H17.2046Z" fill="#D84040"/>
<path d="M17.2046 2.35294H7.79484C7.5891 2.35291 7.38654 2.40068 7.20512 2.49201C7.0237 2.58333 6.86904 2.71539 6.75486 2.87647L6.67736 3.00353L5.08989 5.98941C7.02485 6.53529 9.6323 7.05882 12.4997 7.05882C15.1772 7.05882 17.6259 6.60235 19.5121 6.09765L19.9083 5.98941L18.3221 3.00353C18.2301 2.83037 18.0942 2.68126 17.9263 2.56941C17.7584 2.45756 17.5637 2.38644 17.3596 2.36235L17.2059 2.35294H17.2046Z" fill="white"/>
<path d="M6.87486 10.5882C6.37759 10.5882 5.90068 10.7742 5.54906 11.1051C5.19743 11.4361 4.9999 11.8849 4.9999 12.3529C4.9999 12.821 5.19743 13.2698 5.54906 13.6008C5.90068 13.9317 6.37759 14.1176 6.87486 14.1176C7.37213 14.1176 7.84903 13.9317 8.20065 13.6008C8.55228 13.2698 8.74982 12.821 8.74982 12.3529C8.74982 11.8849 8.55228 11.4361 8.20065 11.1051C7.84903 10.7742 7.37213 10.5882 6.87486 10.5882Z" fill="white"/>
<path d="M18.1246 10.5882C17.6274 10.5882 17.1504 10.7742 16.7988 11.1051C16.4472 11.4361 16.2497 11.8849 16.2497 12.3529C16.2497 12.821 16.4472 13.2698 16.7988 13.6008C17.1504 13.9317 17.6274 14.1176 18.1246 14.1176C18.6219 14.1176 19.0988 13.9317 19.4504 13.6008C19.802 13.2698 19.9996 12.821 19.9996 12.3529C19.9996 11.8849 19.802 11.4361 19.4504 11.1051C19.0988 10.7742 18.6219 10.5882 18.1246 10.5882Z" fill="white"/>
<path d="M8.59961 12.3525C8.59961 12.7777 8.4202 13.1876 8.09766 13.4912C7.7748 13.7951 7.33527 13.9677 6.875 13.9678C6.41472 13.9678 5.97523 13.7951 5.65234 13.4912L5.53809 13.373C5.28748 13.0854 5.14941 12.7247 5.14941 12.3525C5.14951 11.9805 5.28763 11.6206 5.53809 11.333L5.65234 11.2139C5.97519 10.9102 6.41491 10.7383 6.875 10.7383C7.33511 10.7383 7.77483 10.9102 8.09766 11.2139C8.42014 11.5174 8.5995 11.9275 8.59961 12.3525ZM19.8496 12.3525C19.8496 12.7246 19.7124 13.0854 19.4619 13.373L19.3477 13.4912C19.0249 13.795 18.5852 13.9677 18.125 13.9678C17.6647 13.9678 17.2243 13.7951 16.9014 13.4912C16.579 13.1876 16.3994 12.7776 16.3994 12.3525C16.3995 11.9275 16.5789 11.5174 16.9014 11.2139C17.2243 10.91 17.6647 10.7383 18.125 10.7383C18.5851 10.7384 19.0249 10.9102 19.3477 11.2139C19.6701 11.5174 19.8495 11.9275 19.8496 12.3525ZM7.79492 2.20312C7.62334 2.2031 7.45359 2.23309 7.29395 2.29102L7.1377 2.3584C6.93532 2.4603 6.76152 2.60771 6.63281 2.78906H6.63184L6.62695 2.79883L6.54883 2.9248L6.54492 2.93359L4.95703 5.91895L4.87012 6.08301L5.04883 6.13379C6.99283 6.68222 9.61501 7.20898 12.5 7.20898C15.1938 7.20895 17.6557 6.74926 19.5508 6.24219H19.5518L19.9482 6.13379L20.1289 6.08496L20.041 5.91895L18.4541 2.93359L18.3672 2.79199C18.2715 2.65647 18.1507 2.53822 18.0098 2.44434L17.8633 2.35938C17.7123 2.28304 17.5473 2.23397 17.377 2.21387V2.21289H17.3691L17.2148 2.20312H7.79492ZM7.79492 2.50293H17.1963L17.3418 2.51074V2.51172C17.5228 2.53308 17.695 2.5959 17.8428 2.69434C17.9906 2.79281 18.1095 2.92367 18.1895 3.07422L19.6875 5.89355L19.4727 5.95312C17.5955 6.45536 15.1605 6.90915 12.5 6.90918C9.73761 6.90918 7.21669 6.41741 5.31055 5.89258L6.80566 3.08203L6.87891 2.95996C6.97828 2.82082 7.11344 2.70604 7.27246 2.62598C7.43267 2.54533 7.6123 2.5029 7.79492 2.50293ZM1.40039 16.6787L1.34668 16.6338C0.610133 16.0128 0.150391 15.1141 0.150391 14.1172V11.1436L0.15625 10.9482C0.184538 10.4929 0.310565 10.0466 0.52832 9.63672V9.63574L1.71973 7.3916L1.79883 7.24316L1.64258 7.18164C1.34394 7.06362 1.04903 6.93665 0.757812 6.80078H0.758789C0.497609 6.67578 0.301264 6.46057 0.209961 6.2041C0.118965 5.94811 0.137587 5.66814 0.263672 5.4248C0.327365 5.30513 0.416926 5.19803 0.525391 5.10938C0.634114 5.02057 0.760826 4.95249 0.898438 4.90918C1.03637 4.86584 1.18276 4.84773 1.32812 4.85742C1.47348 4.86711 1.61536 4.90378 1.74512 4.96484V4.96582C2.04401 5.1045 2.34796 5.23251 2.65527 5.35059L2.7793 5.39844L2.84082 5.28125L4.57324 2.02246C4.87093 1.46176 5.32961 0.988357 5.89844 0.657227C6.46749 0.326052 7.12454 0.150517 7.79492 0.150391H17.2051C17.8752 0.150489 18.5317 0.32537 19.1006 0.65625C19.6694 0.987106 20.1279 1.46007 20.4258 2.02051L22.1582 5.28125L22.2207 5.39844L22.3447 5.35059C22.6527 5.23177 22.9559 5.10367 23.2539 4.96582L23.2549 4.96484C23.5172 4.84164 23.8218 4.82158 24.1006 4.90918C24.3792 4.99676 24.6065 5.18407 24.7354 5.42676C24.864 5.66915 24.8848 5.9489 24.7939 6.20508C24.7036 6.45968 24.5093 6.67324 24.25 6.79688C23.9507 6.92222 23.6501 7.04472 23.3477 7.16309L23.1904 7.22363L23.2695 7.37305L24.4707 9.63477C24.72 10.1039 24.8497 10.621 24.8496 11.1445V14.1172C24.8496 14.5912 24.7431 15.0607 24.5371 15.4941C24.3312 15.9275 24.0305 16.3163 23.6533 16.6338L23.5996 16.6787V18.2354C23.5996 18.6605 23.4202 19.0704 23.0977 19.374C22.7749 19.6778 22.3352 19.8495 21.875 19.8496C21.4147 19.8496 20.9743 19.6779 20.6514 19.374C20.3288 19.0704 20.1494 18.6605 20.1494 18.2354V17.4971H4.84961V18.2354C4.84959 18.6605 4.67023 19.0704 4.34766 19.374C4.0248 19.6778 3.5852 19.8496 3.125 19.8496C2.66481 19.8496 2.22521 19.6778 1.90234 19.374C1.57977 19.0704 1.40041 18.6605 1.40039 18.2354V16.6787ZM8.89941 12.3525C8.8993 11.8419 8.68412 11.3543 8.30371 10.9961L8.1543 10.8691C7.79388 10.5913 7.34226 10.4385 6.875 10.4385C6.4075 10.4385 5.95525 10.591 5.59473 10.8691L5.44629 10.9961C5.06578 11.3543 4.84972 11.8419 4.84961 12.3525C4.84961 12.8634 5.06563 13.3517 5.44629 13.71C5.82664 14.0679 6.34078 14.2676 6.875 14.2676C7.34222 14.2675 7.7939 14.1147 8.1543 13.8369L8.30371 13.71C8.68428 13.3517 8.89941 12.8633 8.89941 12.3525ZM20.1494 12.3525C20.1493 11.8418 19.9333 11.3543 19.5527 10.9961L19.4043 10.8691C19.0439 10.5913 18.5922 10.4386 18.125 10.4385C17.6576 10.4385 17.2052 10.5911 16.8447 10.8691L16.6963 10.9961C16.3157 11.3543 16.0997 11.8418 16.0996 12.3525C16.0996 12.8634 16.3156 13.3517 16.6963 13.71C17.0766 14.0679 17.5908 14.2676 18.125 14.2676C18.659 14.2675 19.1725 14.0677 19.5527 13.71C19.9334 13.3517 20.1494 12.8634 20.1494 12.3525Z" stroke="#D84040" stroke-width="0.3"/>
</svg>
