<svg width="25" height="25" viewBox="0 0 25 25" fill="none" xmlns="http://www.w3.org/2000/svg">
<path d="M23.0664 0.413086C23.2095 0.472744 23.3472 0.541457 23.4785 0.62207L23.666 0.749023C24.419 1.31553 24.8496 2.1794 24.8496 3.12012V21.3203L12.5 24.8438L0.150391 21.3203V4.16016C0.150391 3.27837 0.528715 2.46451 1.19629 1.89941L1.33398 1.78906C1.51968 1.64911 1.72116 1.54182 1.93359 1.45312V19.9795L2.04199 20.0098L12.459 22.9814L12.5 22.9932L12.541 22.9814L22.958 20.0098L23.0664 19.9795V0.413086ZM4.31641 2.60156C4.31641 1.01941 5.79755 -0.149469 7.33984 0.217773L9.07227 0.630859V0.631836C10.4223 1.0135 11.3085 2.19007 11.3086 3.50586V18.4512L11.417 18.4824L12.459 18.7803L12.5 18.792L12.541 18.7803L13.583 18.4824L13.6914 18.4512V3.47266C13.7053 2.2503 14.4814 1.15607 15.6152 0.727539L15.8486 0.650391L17.7021 0.243164C19.2337 -0.0928382 20.6836 1.07216 20.6836 2.63672V18.3076L12.5 20.6426L4.31641 18.3076V2.60156Z" fill="#D84040" stroke="#D84040" stroke-width="0.3"/>
</svg>
