<svg width="25" height="25" viewBox="0 0 25 25" fill="none" xmlns="http://www.w3.org/2000/svg">
<path d="M7.62399 9.64216C8.06843 10.0494 8.06843 10.7088 7.62399 11.115C7.17955 11.5223 6.46003 11.5223 6.01672 11.115C5.57228 10.7077 5.57228 10.0484 6.01672 9.64216C6.46117 9.23488 7.18068 9.23488 7.62399 9.64216ZM23.3692 15.9805L22.727 16.569C22.6963 17.8534 22.153 19.1283 21.0959 20.1095L17.496 23.4511C16.4241 24.4459 14.9942 24.9958 13.4688 25H13.4495C11.932 25 10.5055 24.4583 9.43244 23.475L1.00284 15.8159C0.264 15.1399 -0.0929169 14.2097 0.0207509 13.2608L0.890309 6.05686C0.94828 5.58187 1.34953 5.20376 1.86558 5.13918L9.69615 4.15796C10.7555 4.02879 11.8217 4.35899 12.5697 5.04439L21.0663 12.765C21.5062 13.1681 21.8586 13.6222 22.1246 14.1066C23.0476 12.8921 22.918 11.1952 21.7358 10.1119L13.1073 2.39864C12.847 2.1601 12.4878 2.04969 12.14 2.09448L4.30944 3.0757C3.6854 3.15278 3.11365 2.75384 3.0284 2.1851C2.94429 1.61533 3.37963 1.09035 4.00026 1.01222L11.832 0.0299643C12.8788 -0.10649 13.9564 0.228916 14.7055 0.917436L23.3317 8.63073C25.5437 10.6567 25.5562 13.9504 23.3681 15.9815L23.3692 15.9805ZM19.4613 14.241L10.9647 6.52038C10.7112 6.2881 10.3554 6.18081 10.0019 6.22143L3.05113 7.09328L2.27933 13.4889C2.24182 13.8045 2.36003 14.1149 2.60556 14.3389L11.0352 21.998C11.6819 22.5917 12.5378 22.9157 13.4483 22.9157H13.4597C14.3759 22.9136 15.234 22.5834 15.8763 21.9855L19.4761 18.644C20.789 17.4252 20.7822 15.4493 19.4602 14.2389L19.4613 14.241Z" fill="#D84040"/>
</svg>
