<svg width="25" height="25" viewBox="0 0 25 25" fill="none" xmlns="http://www.w3.org/2000/svg">
<mask id="path-1-inside-1_7_48" fill="white">
<path d="M16.6667 7.29167H8.33333C7.76042 7.29167 7.29167 7.76042 7.29167 8.33333V16.6667C7.29167 17.2396 7.76042 17.7083 8.33333 17.7083H16.6667C17.2396 17.7083 17.7083 17.2396 17.7083 16.6667V8.33333C17.7083 7.76042 17.2396 7.29167 16.6667 7.29167ZM15.625 15.625H9.375V9.375H15.625V15.625ZM23.9583 11.4583C24.5312 11.4583 25 10.9896 25 10.4167C25 9.84375 24.5312 9.375 23.9583 9.375H22.9167V7.29167H23.9583C24.5312 7.29167 25 6.82292 25 6.25C25 5.67708 24.5312 5.20833 23.9583 5.20833H22.4792C21.9583 4.01042 20.9896 3.05208 19.7917 2.52083V1.04167C19.7917 0.46875 19.3229 0 18.75 0C18.1771 0 17.7083 0.46875 17.7083 1.04167V2.08333H15.625V1.04167C15.625 0.46875 15.1563 0 14.5833 0C14.0104 0 13.5417 0.46875 13.5417 1.04167V2.08333H11.4583V1.04167C11.4583 0.46875 10.9896 0 10.4167 0C9.84375 0 9.375 0.46875 9.375 1.04167V2.08333H7.29167V1.04167C7.29167 0.46875 6.82292 0 6.25 0C5.67708 0 5.20833 0.46875 5.20833 1.04167V2.52083C4.01042 3.04167 3.05208 4.01042 2.52083 5.20833H1.04167C0.46875 5.20833 0 5.67708 0 6.25C0 6.82292 0.46875 7.29167 1.04167 7.29167H2.08333V9.375H1.04167C0.46875 9.375 0 9.84375 0 10.4167C0 10.9896 0.46875 11.4583 1.04167 11.4583H2.08333V13.5417H1.04167C0.46875 13.5417 0 14.0104 0 14.5833C0 15.1563 0.46875 15.625 1.04167 15.625H2.08333V17.7083H1.04167C0.46875 17.7083 0 18.1771 0 18.75C0 19.3229 0.46875 19.7917 1.04167 19.7917H2.52083C3.04167 20.9896 4.01042 21.9479 5.20833 22.4792V23.9583C5.20833 24.5312 5.67708 25 6.25 25C6.82292 25 7.29167 24.5312 7.29167 23.9583V22.9167H9.375V23.9583C9.375 24.5312 9.84375 25 10.4167 25C10.9896 25 11.4583 24.5312 11.4583 23.9583V22.9167H13.5417V23.9583C13.5417 24.5312 14.0104 25 14.5833 25C15.1563 25 15.625 24.5312 15.625 23.9583V22.9167H17.7083V23.9583C17.7083 24.5312 18.1771 25 18.75 25C19.3229 25 19.7917 24.5312 19.7917 23.9583V22.4792C20.9896 21.9583 21.9479 20.9896 22.4792 19.7917H23.9583C24.5312 19.7917 25 19.3229 25 18.75C25 18.1771 24.5312 17.7083 23.9583 17.7083H22.9167V15.625H23.9583C24.5312 15.625 25 15.1563 25 14.5833C25 14.0104 24.5312 13.5417 23.9583 13.5417H22.9167V11.4583H23.9583ZM17.7083 20.8333H7.29167C5.57292 20.8333 4.16667 19.4271 4.16667 17.7083V7.29167C4.16667 5.57292 5.57292 4.16667 7.29167 4.16667H17.7083C19.4271 4.16667 20.8333 5.57292 20.8333 7.29167V17.7083C20.8333 19.4271 19.4271 20.8333 17.7083 20.8333Z"/>
<path d="M15.625 15.625H9.375V9.375H15.625V15.625Z"/>
<path fill-rule="evenodd" clip-rule="evenodd" d="M17.7083 20.8333H7.29167C5.57292 20.8333 4.16667 19.4271 4.16667 17.7083V7.29167C4.16667 5.57292 5.57292 4.16667 7.29167 4.16667H17.7083C19.4271 4.16667 20.8333 5.57292 20.8333 7.29167V17.7083C20.8333 19.4271 19.4271 20.8333 17.7083 20.8333ZM8.33333 7.29167H16.6667C17.2396 7.29167 17.7083 7.76042 17.7083 8.33333V16.6667C17.7083 17.2396 17.2396 17.7083 16.6667 17.7083H8.33333C7.76042 17.7083 7.29167 17.2396 7.29167 16.6667V8.33333C7.29167 7.76042 7.76042 7.29167 8.33333 7.29167Z"/>
</mask>
<path d="M16.6667 7.29167H8.33333C7.76042 7.29167 7.29167 7.76042 7.29167 8.33333V16.6667C7.29167 17.2396 7.76042 17.7083 8.33333 17.7083H16.6667C17.2396 17.7083 17.7083 17.2396 17.7083 16.6667V8.33333C17.7083 7.76042 17.2396 7.29167 16.6667 7.29167ZM15.625 15.625H9.375V9.375H15.625V15.625ZM23.9583 11.4583C24.5312 11.4583 25 10.9896 25 10.4167C25 9.84375 24.5312 9.375 23.9583 9.375H22.9167V7.29167H23.9583C24.5312 7.29167 25 6.82292 25 6.25C25 5.67708 24.5312 5.20833 23.9583 5.20833H22.4792C21.9583 4.01042 20.9896 3.05208 19.7917 2.52083V1.04167C19.7917 0.46875 19.3229 0 18.75 0C18.1771 0 17.7083 0.46875 17.7083 1.04167V2.08333H15.625V1.04167C15.625 0.46875 15.1563 0 14.5833 0C14.0104 0 13.5417 0.46875 13.5417 1.04167V2.08333H11.4583V1.04167C11.4583 0.46875 10.9896 0 10.4167 0C9.84375 0 9.375 0.46875 9.375 1.04167V2.08333H7.29167V1.04167C7.29167 0.46875 6.82292 0 6.25 0C5.67708 0 5.20833 0.46875 5.20833 1.04167V2.52083C4.01042 3.04167 3.05208 4.01042 2.52083 5.20833H1.04167C0.46875 5.20833 0 5.67708 0 6.25C0 6.82292 0.46875 7.29167 1.04167 7.29167H2.08333V9.375H1.04167C0.46875 9.375 0 9.84375 0 10.4167C0 10.9896 0.46875 11.4583 1.04167 11.4583H2.08333V13.5417H1.04167C0.46875 13.5417 0 14.0104 0 14.5833C0 15.1563 0.46875 15.625 1.04167 15.625H2.08333V17.7083H1.04167C0.46875 17.7083 0 18.1771 0 18.75C0 19.3229 0.46875 19.7917 1.04167 19.7917H2.52083C3.04167 20.9896 4.01042 21.9479 5.20833 22.4792V23.9583C5.20833 24.5312 5.67708 25 6.25 25C6.82292 25 7.29167 24.5312 7.29167 23.9583V22.9167H9.375V23.9583C9.375 24.5312 9.84375 25 10.4167 25C10.9896 25 11.4583 24.5312 11.4583 23.9583V22.9167H13.5417V23.9583C13.5417 24.5312 14.0104 25 14.5833 25C15.1563 25 15.625 24.5312 15.625 23.9583V22.9167H17.7083V23.9583C17.7083 24.5312 18.1771 25 18.75 25C19.3229 25 19.7917 24.5312 19.7917 23.9583V22.4792C20.9896 21.9583 21.9479 20.9896 22.4792 19.7917H23.9583C24.5312 19.7917 25 19.3229 25 18.75C25 18.1771 24.5312 17.7083 23.9583 17.7083H22.9167V15.625H23.9583C24.5312 15.625 25 15.1563 25 14.5833C25 14.0104 24.5312 13.5417 23.9583 13.5417H22.9167V11.4583H23.9583ZM17.7083 20.8333H7.29167C5.57292 20.8333 4.16667 19.4271 4.16667 17.7083V7.29167C4.16667 5.57292 5.57292 4.16667 7.29167 4.16667H17.7083C19.4271 4.16667 20.8333 5.57292 20.8333 7.29167V17.7083C20.8333 19.4271 19.4271 20.8333 17.7083 20.8333Z" fill="#D84040"/>
<path d="M15.625 15.625H9.375V9.375H15.625V15.625Z" fill="white"/>
<path fill-rule="evenodd" clip-rule="evenodd" d="M17.7083 20.8333H7.29167C5.57292 20.8333 4.16667 19.4271 4.16667 17.7083V7.29167C4.16667 5.57292 5.57292 4.16667 7.29167 4.16667H17.7083C19.4271 4.16667 20.8333 5.57292 20.8333 7.29167V17.7083C20.8333 19.4271 19.4271 20.8333 17.7083 20.8333ZM8.33333 7.29167H16.6667C17.2396 7.29167 17.7083 7.76042 17.7083 8.33333V16.6667C17.7083 17.2396 17.2396 17.7083 16.6667 17.7083H8.33333C7.76042 17.7083 7.29167 17.2396 7.29167 16.6667V8.33333C7.29167 7.76042 7.76042 7.29167 8.33333 7.29167Z" fill="white"/>
<path d="M16.6667 7.29167H8.33333C7.76042 7.29167 7.29167 7.76042 7.29167 8.33333V16.6667C7.29167 17.2396 7.76042 17.7083 8.33333 17.7083H16.6667C17.2396 17.7083 17.7083 17.2396 17.7083 16.6667V8.33333C17.7083 7.76042 17.2396 7.29167 16.6667 7.29167ZM15.625 15.625H9.375V9.375H15.625V15.625ZM23.9583 11.4583C24.5312 11.4583 25 10.9896 25 10.4167C25 9.84375 24.5312 9.375 23.9583 9.375H22.9167V7.29167H23.9583C24.5312 7.29167 25 6.82292 25 6.25C25 5.67708 24.5312 5.20833 23.9583 5.20833H22.4792C21.9583 4.01042 20.9896 3.05208 19.7917 2.52083V1.04167C19.7917 0.46875 19.3229 0 18.75 0C18.1771 0 17.7083 0.46875 17.7083 1.04167V2.08333H15.625V1.04167C15.625 0.46875 15.1563 0 14.5833 0C14.0104 0 13.5417 0.46875 13.5417 1.04167V2.08333H11.4583V1.04167C11.4583 0.46875 10.9896 0 10.4167 0C9.84375 0 9.375 0.46875 9.375 1.04167V2.08333H7.29167V1.04167C7.29167 0.46875 6.82292 0 6.25 0C5.67708 0 5.20833 0.46875 5.20833 1.04167V2.52083C4.01042 3.04167 3.05208 4.01042 2.52083 5.20833H1.04167C0.46875 5.20833 0 5.67708 0 6.25C0 6.82292 0.46875 7.29167 1.04167 7.29167H2.08333V9.375H1.04167C0.46875 9.375 0 9.84375 0 10.4167C0 10.9896 0.46875 11.4583 1.04167 11.4583H2.08333V13.5417H1.04167C0.46875 13.5417 0 14.0104 0 14.5833C0 15.1563 0.46875 15.625 1.04167 15.625H2.08333V17.7083H1.04167C0.46875 17.7083 0 18.1771 0 18.75C0 19.3229 0.46875 19.7917 1.04167 19.7917H2.52083C3.04167 20.9896 4.01042 21.9479 5.20833 22.4792V23.9583C5.20833 24.5312 5.67708 25 6.25 25C6.82292 25 7.29167 24.5312 7.29167 23.9583V22.9167H9.375V23.9583C9.375 24.5312 9.84375 25 10.4167 25C10.9896 25 11.4583 24.5312 11.4583 23.9583V22.9167H13.5417V23.9583C13.5417 24.5312 14.0104 25 14.5833 25C15.1563 25 15.625 24.5312 15.625 23.9583V22.9167H17.7083V23.9583C17.7083 24.5312 18.1771 25 18.75 25C19.3229 25 19.7917 24.5312 19.7917 23.9583V22.4792C20.9896 21.9583 21.9479 20.9896 22.4792 19.7917H23.9583C24.5312 19.7917 25 19.3229 25 18.75C25 18.1771 24.5312 17.7083 23.9583 17.7083H22.9167V15.625H23.9583C24.5312 15.625 25 15.1563 25 14.5833C25 14.0104 24.5312 13.5417 23.9583 13.5417H22.9167V11.4583H23.9583ZM17.7083 20.8333H7.29167C5.57292 20.8333 4.16667 19.4271 4.16667 17.7083V7.29167C4.16667 5.57292 5.57292 4.16667 7.29167 4.16667H17.7083C19.4271 4.16667 20.8333 5.57292 20.8333 7.29167V17.7083C20.8333 19.4271 19.4271 20.8333 17.7083 20.8333Z" stroke="#D84040" stroke-width="0.6" mask="url(#path-1-inside-1_7_48)"/>
<path d="M15.625 15.625H9.375V9.375H15.625V15.625Z" stroke="#D84040" stroke-width="0.6" mask="url(#path-1-inside-1_7_48)"/>
<path fill-rule="evenodd" clip-rule="evenodd" d="M17.7083 20.8333H7.29167C5.57292 20.8333 4.16667 19.4271 4.16667 17.7083V7.29167C4.16667 5.57292 5.57292 4.16667 7.29167 4.16667H17.7083C19.4271 4.16667 20.8333 5.57292 20.8333 7.29167V17.7083C20.8333 19.4271 19.4271 20.8333 17.7083 20.8333ZM8.33333 7.29167H16.6667C17.2396 7.29167 17.7083 7.76042 17.7083 8.33333V16.6667C17.7083 17.2396 17.2396 17.7083 16.6667 17.7083H8.33333C7.76042 17.7083 7.29167 17.2396 7.29167 16.6667V8.33333C7.29167 7.76042 7.76042 7.29167 8.33333 7.29167Z" stroke="#D84040" stroke-width="0.6" mask="url(#path-1-inside-1_7_48)"/>
</svg>
