<svg width="25" height="25" viewBox="0 0 25 25" fill="none" xmlns="http://www.w3.org/2000/svg">
<path d="M23.5406 17.8283L15.0204 10.9906C17.2049 8.89743 18.2018 7.3724 17.5716 4.36325C17.1351 2.27912 15.6184 0.624543 13.7068 0.149534C12.1265 -0.245928 10.5015 0.151807 9.25455 1.23819C8.00658 2.32344 7.29197 3.94279 7.29197 5.68259C7.29197 6.62466 7.99096 7.38717 8.85454 7.38717C9.71811 7.38717 10.4171 6.62466 10.4171 5.68259C10.4171 4.98712 10.7036 4.33825 11.2025 3.90415C11.7088 3.46323 12.3495 3.30755 13.012 3.4746C13.7485 3.65755 14.3568 4.3212 14.5246 5.12463C14.8298 6.58261 14.7662 6.80648 11.5349 9.74517L1.4386 17.8465C0.537522 18.5953 0 19.7806 0 21.0158C0 23.2136 1.63861 25 3.65224 25H21.3478C23.3624 25 25 23.2125 25 21.0158C25 19.7806 24.4614 18.5953 23.5395 17.8294L23.5406 17.8283ZM21.3488 21.5908H3.65224C3.3616 21.5908 3.12513 21.3329 3.12513 21.0158C3.12513 20.8374 3.20326 20.667 3.3116 20.5761L12.5005 13.2021L21.6676 20.559C21.7978 20.667 21.8759 20.8386 21.8759 21.0158C21.8759 21.3329 21.6394 21.5908 21.3488 21.5908Z" fill="#D84040"/>
<path d="M21.3488 21.5908H3.65224C3.3616 21.5908 3.12513 21.3329 3.12513 21.0158C3.12513 20.8374 3.20326 20.667 3.3116 20.5761L12.5005 13.2021L21.6676 20.559C21.7978 20.667 21.8759 20.8386 21.8759 21.0158C21.8759 21.3329 21.6394 21.5908 21.3488 21.5908Z" fill="white"/>
<path d="M9.35352 1.35156C10.564 0.296964 12.1383 -0.0881948 13.6699 0.294922H13.6709C15.5208 0.754706 16.9988 2.36021 17.4248 4.39355C17.7352 5.87574 17.642 6.97711 17.2139 7.96094C16.783 8.95079 16.0069 9.83843 14.917 10.8828L14.793 11.001L14.9268 11.1074L23.3916 17.9014L23.4434 17.9443C24.3293 18.6803 24.8495 19.8228 24.8496 21.0156C24.8496 23.142 23.2674 24.8496 21.3477 24.8496H3.65234C1.73355 24.8496 0.150391 23.1431 0.150391 21.0156C0.150451 19.8233 0.669014 18.6826 1.53223 17.9639L11.6289 9.8623L11.6357 9.85645C12.4434 9.1219 13.0561 8.55466 13.5146 8.09473C13.9721 7.6359 14.2825 7.27706 14.4824 6.95996C14.685 6.63858 14.7751 6.35687 14.79 6.05566C14.8046 5.76166 14.7467 5.45596 14.6709 5.09375H14.6719C14.4936 4.2398 13.8457 3.52731 13.0479 3.3291H13.0488C12.3832 3.16127 11.7342 3.29846 11.208 3.70605L11.1045 3.79102C10.5709 4.25525 10.2676 4.94632 10.2676 5.68262C10.2676 6.55438 9.6232 7.2373 8.85449 7.2373C8.0858 7.23728 7.4424 6.55436 7.44238 5.68262C7.44238 3.98377 8.13946 2.40665 9.35254 1.35156H9.35352ZM21.7256 21.0156C21.7256 21.2624 21.5444 21.4404 21.3486 21.4404H3.65234C3.48091 21.4404 3.32043 21.3042 3.2832 21.1045L3.27539 21.0156C3.27545 20.8756 3.33743 20.7491 3.40723 20.6904L12.5 13.3945L21.5732 20.6758C21.6662 20.7537 21.7255 20.8812 21.7256 21.0156ZM22.0264 21.0156C22.0263 20.7964 21.9301 20.5814 21.7637 20.4434L21.7617 20.4424L12.5947 13.085L12.501 13.0098L12.4062 13.085L3.21777 20.459L3.21484 20.4609C3.06818 20.5841 2.97565 20.7992 2.97559 21.0156C2.97559 21.403 3.26685 21.7412 3.65234 21.7412H21.3486C21.6859 21.7412 21.9516 21.4823 22.0127 21.1582L22.0264 21.0156Z" stroke="#D84040" stroke-width="0.3"/>
</svg>
