<svg width="24" height="24" viewBox="0 0 24 24" fill="none" xmlns="http://www.w3.org/2000/svg">
<g clip-path="url(#clip0_7_61)">
<path d="M8.00009 14H6.00009V20H8.00009V14Z" fill="white"/>
<path d="M13.0001 14H11.0001V20H13.0001V14Z" fill="white"/>
<path d="M18.0001 14H16.0001V20H18.0001V14Z" fill="white"/>
<path fill-rule="evenodd" clip-rule="evenodd" d="M22.1161 21.456L23.8791 9.99998H0.121094L1.88409 21.455C2.11009 22.93 3.35709 24 4.84909 24H19.1511C20.6431 24 21.8901 22.93 22.1161 21.456ZM6.00009 14H8.00009V20H6.00009V14ZM11.0001 14H13.0001V20H11.0001V14ZM16.0001 14H18.0001V20H16.0001V14ZM21.9815 7.99898L21.9811 7.99998L21.9831 7.99898H21.9815ZM21.9815 7.99898C22.9592 5.40838 23.261 3.0838 22.7391 1.66798C22.4131 0.780981 21.8421 0.376981 21.4201 0.193981C19.7851 -0.516019 17.8251 0.728981 16.0801 2.74698L19.0011 4.49998L17.9721 6.21498L14.8551 4.34398C14.3031 5.14298 13.7901 5.99498 13.3421 6.86098L13.2651 7.00898C13.2501 7.03799 13.2341 7.06891 13.2172 7.10159C13.0988 7.33029 12.9356 7.6455 12.7571 7.99898H21.9815Z" fill="#D84040"/>
<path d="M4.00009 2.73598V1.99998H3.00009V-1.89054e-05H12.0001V1.99998H11.0001V2.73598C11.0001 3.43398 11.1431 4.11298 11.4251 4.75298L12.3211 6.78598C12.4951 7.18098 12.6261 7.58798 12.7341 7.99998H2.26709C2.37509 7.58798 2.50509 7.18098 2.68009 6.78598L3.57609 4.75298C3.85809 4.11298 4.00009 3.43498 4.00009 2.73598Z" fill="#D84040"/>
<path d="M23.7041 10.1501L21.9678 21.4333C21.753 22.8339 20.5692 23.8501 19.1514 23.8503H4.84863C3.51942 23.8501 2.39611 22.9567 2.08398 21.6901L2.03223 21.4323L0.295898 10.1501H23.7041ZM5.84961 13.8503V20.1501H8.15039V13.8503H5.84961ZM10.8496 13.8503V20.1501H13.1504V13.8503H10.8496ZM15.8496 13.8503V20.1501H18.1504V13.8503H15.8496ZM17.8496 14.1501V19.8503H16.1504V14.1501H17.8496ZM12.8496 14.1501V19.8503H11.1504V14.1501H12.8496ZM7.84961 14.1501V19.8503H6.15039V14.1501H7.84961ZM11.8496 0.150085V1.85028H10.8496V2.73602C10.8496 3.45481 10.9977 4.15419 11.2881 4.81317L12.1836 6.84637C12.3273 7.17251 12.4408 7.50847 12.5371 7.85028H2.46387C2.56 7.50832 2.673 7.17226 2.81738 6.84637L3.71289 4.81317C4.0033 4.15405 4.15038 3.45571 4.15039 2.73602V1.85028H3.15039V0.150085H11.8496ZM18.8604 0.58075C19.6931 0.14748 20.4921 0.0168313 21.2168 0.275085L21.3604 0.331726C21.7512 0.501233 22.2891 0.877275 22.5986 1.71942C22.8481 2.3962 22.9044 3.30502 22.7734 4.37469C22.646 5.4155 22.3413 6.59804 21.876 7.8493H13.002C13.1364 7.58531 13.2572 7.35108 13.3506 7.17059C13.3675 7.13794 13.3834 7.10684 13.3984 7.07782L13.4756 6.93036C13.8991 6.11169 14.3821 5.3058 14.9004 4.54559L17.8945 6.34344L18.0234 6.42059L18.1006 6.29169L19.1299 4.57684L19.207 4.44891L19.0781 4.37177L16.3125 2.71161C17.143 1.77323 18.0113 1.02252 18.8604 0.58075Z" stroke="#D84040" stroke-width="0.3"/>
</g>
<defs>
<clipPath id="clip0_7_61">
<rect width="24" height="24" fill="white"/>
</clipPath>
</defs>
</svg>
