<svg width="25" height="25" viewBox="0 0 25 25" fill="none" xmlns="http://www.w3.org/2000/svg">
<path d="M24.153 10.6052C23.8061 10.2042 23.3768 9.89479 22.9007 9.68437V8.85417C22.9007 6.63229 21.6287 4.70208 19.7753 3.75208V2.08333C19.7753 0.934375 18.8408 0 17.6917 0H15.6081C14.4589 0 13.5244 0.934375 13.5244 2.08333C13.5244 2.59479 13.7745 3.07396 14.1943 3.36562C15.0069 3.93125 15.4539 4.47396 15.6872 5.17917C15.8987 5.81875 16.4967 6.25 17.1708 6.25C18.6064 6.25 19.7753 7.41875 19.7753 8.85417V9.375H14.5662V8.85417C14.5662 6.63333 13.2932 4.70729 11.4408 3.75729V2.08333C11.4408 0.934375 10.5063 0 9.35719 0H7.27357C6.12445 0 5.18994 0.934375 5.18994 2.08333V3.75729C3.3376 4.70729 2.06451 6.63333 2.06451 8.85417V9.69375C1.6009 9.90312 1.18314 10.2115 0.843507 10.6042C0.181957 11.3698 -0.112876 12.3781 0.0392285 13.4094L1.08729 19.5115C1.54569 22.6406 4.32316 25 7.54861 25H17.4489C20.6733 25 23.4519 22.6406 23.905 19.55L24.9635 13.3729C25.1094 12.3781 24.8135 11.3698 24.153 10.6052ZM7.79447 6.25H8.83628C10.2719 6.25 11.4408 7.41875 11.4408 8.85417V9.375H5.18994V8.85417C5.18994 7.41875 6.35886 6.25 7.79447 6.25ZM20.8171 19.0583C20.5806 20.6646 19.1325 21.875 17.4479 21.875H7.54756C5.86296 21.875 4.41484 20.6646 4.17314 19.0208L3.12507 12.9187C3.10736 12.7948 3.1605 12.7031 3.20842 12.6479C3.25634 12.5927 3.36365 12.5 3.54597 12.5H21.4505C21.6329 12.5 21.7402 12.5927 21.7881 12.6479C21.836 12.7031 21.8891 12.7948 21.8766 12.8812L20.8171 19.0583ZM16.6499 16.1458V18.2292C16.6499 19.0917 15.9508 19.7917 15.0872 19.7917C14.2235 19.7917 13.5244 19.0917 13.5244 18.2292V16.1458C13.5244 15.2833 14.2235 14.5833 15.0872 14.5833C15.9508 14.5833 16.6499 15.2833 16.6499 16.1458ZM11.4408 16.1458V18.2292C11.4408 19.0917 10.7418 19.7917 9.8781 19.7917C9.01443 19.7917 8.31538 19.0917 8.31538 18.2292V16.1458C8.31538 15.2833 9.01443 14.5833 9.8781 14.5833C10.7418 14.5833 11.4408 15.2833 11.4408 16.1458Z" fill="#D84040"/>
<path d="M7.79447 6.25H8.83628C10.2719 6.25 11.4408 7.41875 11.4408 8.85417V9.375H5.18994V8.85417C5.18994 7.41875 6.35886 6.25 7.79447 6.25Z" fill="white"/>
<path fill-rule="evenodd" clip-rule="evenodd" d="M20.8171 19.0583C20.5806 20.6646 19.1325 21.875 17.4479 21.875H7.54756C5.86296 21.875 4.41484 20.6646 4.17314 19.0208L3.12507 12.9187C3.10736 12.7948 3.1605 12.7031 3.20842 12.6479C3.25634 12.5927 3.36365 12.5 3.54597 12.5H21.4505C21.6329 12.5 21.7402 12.5927 21.7881 12.6479C21.836 12.7031 21.8891 12.7948 21.8766 12.8812L20.8171 19.0583ZM16.6499 18.2292V16.1458C16.6499 15.2833 15.9508 14.5833 15.0872 14.5833C14.2235 14.5833 13.5244 15.2833 13.5244 16.1458V18.2292C13.5244 19.0917 14.2235 19.7917 15.0872 19.7917C15.9508 19.7917 16.6499 19.0917 16.6499 18.2292ZM11.4408 18.2292V16.1458C11.4408 15.2833 10.7418 14.5833 9.8781 14.5833C9.01443 14.5833 8.31538 15.2833 8.31538 16.1458V18.2292C8.31538 19.0917 9.01443 19.7917 9.8781 19.7917C10.7418 19.7917 11.4408 19.0917 11.4408 18.2292Z" fill="white"/>
<path d="M7.27344 0.150391H9.35742C10.4235 0.150516 11.2908 1.01714 11.291 2.08301V3.84863L11.3721 3.89062C13.1767 4.81615 14.416 6.6925 14.416 8.85449V9.52539H19.9258V8.85449C19.9258 7.33625 18.6893 6.09968 17.1709 6.09961C16.5614 6.09961 16.0212 5.70984 15.8301 5.13184C15.6144 4.48016 15.2253 3.96481 14.5752 3.45898L14.2803 3.24219L14.1445 3.13574C13.8473 2.86997 13.6748 2.4875 13.6748 2.08301C13.675 1.01706 14.5422 0.150391 15.6084 0.150391H17.6914C18.7576 0.150391 19.6248 1.01706 19.625 2.08301V3.84375L19.707 3.88574C21.5124 4.81121 22.751 6.69135 22.751 8.85449V9.78223L22.8398 9.82129C23.2965 10.0231 23.7074 10.3198 24.0391 10.7031C24.6705 11.4341 24.9537 12.3974 24.8154 13.3477L23.7568 19.5244V19.5283C23.3148 22.5424 20.6019 24.8495 17.4492 24.8496H7.54883C4.39557 24.8496 1.68263 22.5426 1.23535 19.4893V19.4863L0.1875 13.3838C0.0429096 12.3964 0.325134 11.4335 0.957031 10.7021C1.28218 10.3262 1.682 10.0306 2.12598 9.83008L2.21484 9.79102V8.85449C2.21484 6.6925 3.45418 4.81615 5.25879 3.89062L5.33984 3.84863V2.08301C5.34002 1.0171 6.20731 0.150461 7.27344 0.150391ZM3.5459 12.3496C3.36647 12.3496 3.24007 12.4196 3.16016 12.4863L3.09473 12.5498C3.03792 12.6153 2.97042 12.7259 2.97168 12.874L2.97656 12.9404L2.97754 12.9443L4.02441 19.042V19.043C4.27752 20.7633 5.79213 22.0254 7.54785 22.0254H17.4482C19.2028 22.0252 20.7179 20.764 20.9658 19.0801L20.9648 19.0791L22.0244 12.9062L22.0254 12.9023C22.0368 12.8227 22.0166 12.7495 21.9922 12.6934C21.9797 12.6647 21.965 12.6375 21.9492 12.6133L21.9014 12.5498L21.8369 12.4863C21.757 12.4195 21.6299 12.3496 21.4502 12.3496H3.5459ZM3.5459 12.6504H21.4502C21.5751 12.6504 21.6448 12.7116 21.6748 12.7461C21.6907 12.7644 21.7072 12.7884 21.7178 12.8125C21.7275 12.8349 21.728 12.8499 21.7275 12.8574L20.6689 19.0332V19.0361C20.458 20.469 19.2308 21.5787 17.748 21.7119L17.4482 21.7246H7.54785C5.93444 21.7246 4.5517 20.566 4.32129 18.999V18.9951L3.27344 12.8975C3.26403 12.8314 3.29049 12.7816 3.32129 12.7461C3.35122 12.7116 3.42089 12.6504 3.5459 12.6504ZM11.291 18.2295C11.2908 19.009 10.6586 19.6416 9.87793 19.6416C9.14587 19.6415 8.54472 19.0852 8.47266 18.373L8.46582 18.2295V16.1455C8.466 15.366 9.09734 14.7335 9.87793 14.7334C10.6586 14.7334 11.2908 15.366 11.291 16.1455V18.2295ZM16.5 18.2295C16.4998 19.009 15.8676 19.6416 15.0869 19.6416C14.3549 19.6415 13.7537 19.0852 13.6816 18.373L13.6748 18.2295V16.1455C13.675 15.366 14.3064 14.7335 15.0869 14.7334C15.8676 14.7334 16.4998 15.366 16.5 16.1455V18.2295ZM11.291 9.22461H5.33984V8.85449C5.33984 7.50194 6.44213 6.40039 7.79492 6.40039H8.83594C10.1887 6.40039 11.291 7.50194 11.291 8.85449V9.22461ZM11.5908 16.1455C11.5906 15.2004 10.8244 14.4336 9.87793 14.4336C8.93156 14.4337 8.16521 15.2004 8.16504 16.1455V18.2295C8.16522 19.1746 8.93156 19.9413 9.87793 19.9414C10.7653 19.9414 11.4943 19.2674 11.582 18.4043L11.5908 18.2295V16.1455ZM16.7998 16.1455C16.7996 15.2004 16.0334 14.4336 15.0869 14.4336C14.1406 14.4337 13.3742 15.2004 13.374 16.1455V18.2295C13.3742 19.1746 14.1406 19.9413 15.0869 19.9414C15.9743 19.9414 16.7033 19.2674 16.791 18.4043L16.7998 18.2295V16.1455ZM11.5908 8.85449C11.5908 7.33621 10.3544 6.09961 8.83594 6.09961H7.79492C6.27648 6.09961 5.04004 7.33621 5.04004 8.85449V9.52539H11.5908V8.85449Z" stroke="#D84040" stroke-width="0.3"/>
</svg>
