<svg width="25" height="23" viewBox="0 0 25 23" fill="none" xmlns="http://www.w3.org/2000/svg">
<path d="M2.08333 7.33335V6.29169C2.08333 2.8396 4.88125 0.041687 8.33333 0.041687H16.6667C20.1187 0.041687 22.9167 2.8396 22.9167 6.29169V7.33335C20.6156 7.33335 18.75 9.19898 18.75 11.5V14.625H6.25V11.5C6.25 9.19898 4.38437 7.33335 2.08333 7.33335ZM22.5667 9.44481C21.5427 9.61148 20.8333 10.5729 20.8333 11.6115V15.6667C20.8333 16.2417 20.3667 16.7084 19.7917 16.7084H5.20833C4.63333 16.7084 4.16667 16.2417 4.16667 15.6667V11.6115C4.16667 10.574 3.45729 9.61148 2.43333 9.44481C1.12812 9.23231 0 10.2344 0 11.5V15.6667C0 17.3709 0.81875 18.8834 2.08333 19.8334V21.9167C2.08333 22.4917 2.55 22.9584 3.125 22.9584C3.7 22.9584 4.16667 22.4917 4.16667 21.9167V20.7709C4.50312 20.8396 4.85208 20.875 5.20833 20.875H19.7917C20.1479 20.875 20.4969 20.8396 20.8333 20.7709V21.9167C20.8333 22.4917 21.3 22.9584 21.875 22.9584C22.45 22.9584 22.9167 22.4917 22.9167 21.9167V19.8334C24.1812 18.8834 25 17.3709 25 15.6667V11.5C25 10.2344 23.8719 9.23335 22.5667 9.44481Z" fill="#D84040"/>
</svg>
