<svg width="25" height="22" viewBox="0 0 25 22" fill="none" xmlns="http://www.w3.org/2000/svg">
<path d="M8.65937 9.02287C8.12396 9.08389 7.74062 9.67008 7.82396 10.5494C8.07292 12.674 9.93229 12.4019 9.76354 10.3273C9.67917 9.44801 9.19479 8.96185 8.65937 9.02287Z" fill="white"/>
<path d="M12.0865 8.31164C12.001 7.43236 11.5177 6.94621 10.9812 7.00723C10.4437 7.06825 10.0635 7.65444 10.1479 8.53372C10.3969 10.6594 12.2573 10.3863 12.0865 8.31164Z" fill="white"/>
<path d="M14.8417 8.53372C14.925 7.65544 14.5417 7.06925 14.0062 7.00723C13.4708 6.94621 12.9854 7.43236 12.9021 8.31164C12.7323 10.3883 14.5927 10.6584 14.8417 8.53372Z" fill="white"/>
<path fill-rule="evenodd" clip-rule="evenodd" d="M15.6229 13.8874C15.6229 14.3976 15.4125 15.0048 14.4083 15.0048C14.125 14.9928 13.8448 14.9458 13.575 14.8657C12.8771 14.6547 12.1198 14.6547 11.4208 14.8657C10.276 15.2288 9.33021 14.8717 9.37292 13.8874C9.375 12.432 10.9219 11.0035 12.4979 11.0035C14.074 11.0035 15.6208 12.432 15.6208 13.8874H15.6229ZM25 6.79116C25 11.6777 19.2229 17.9647 15.3406 20.9987C14.4865 21.6659 13.4406 22 12.3958 22C11.3448 22 10.2937 21.6619 9.43854 20.9867C5.78958 18.1048 0 11.7027 0 6.79216C0 3.04697 3.15937 0 7.04375 0C9.17708 0 11.1562 0.91029 12.5 2.5038C13.8448 0.91029 15.8229 0 17.9563 0C21.8406 0 25 3.04597 25 6.79116ZM22.9167 6.79116C22.9167 4.14932 20.6917 1.99964 17.9563 1.99964C16.4167 1.99964 14.9906 2.67485 14.0427 3.85423C13.2979 4.78252 11.7021 4.78252 10.9562 3.85423C10.0083 2.67585 8.58229 2.00064 7.04375 2.00064C4.30937 2.00064 2.08333 4.14932 2.08333 6.79216C2.08333 10.7894 7.15833 16.5963 10.7615 19.4422C11.7188 20.1984 13.0615 20.2004 14.026 19.4472C18.3365 16.0801 22.9167 10.4993 22.9167 6.79116Z" fill="#D84040"/>
<path d="M16.2198 9.02287C15.6844 8.96185 15.199 9.44801 15.1156 10.3273C14.9458 12.4029 16.8062 12.674 17.0552 10.5494C17.1385 9.67108 16.7552 9.08489 16.2198 9.02287Z" fill="white"/>
<path fill-rule="evenodd" clip-rule="evenodd" d="M22.9167 6.79116C22.9167 4.14932 20.6917 1.99964 17.9563 1.99964C16.4167 1.99964 14.9906 2.67485 14.0427 3.85423C13.2979 4.78252 11.7021 4.78252 10.9562 3.85423C10.0083 2.67585 8.58229 2.00064 7.04375 2.00064C4.30937 2.00064 2.08333 4.14932 2.08333 6.79216C2.08333 10.7894 7.15833 16.5963 10.7615 19.4422C11.7188 20.1984 13.0615 20.2004 14.026 19.4472C18.3365 16.0801 22.9167 10.4993 22.9167 6.79116ZM14.4083 15.0048C15.4125 15.0048 15.6229 14.3976 15.6229 13.8874H15.6208C15.6208 12.432 14.074 11.0035 12.4979 11.0035C10.9219 11.0035 9.375 12.432 9.37292 13.8874C9.33021 14.8717 10.276 15.2288 11.4208 14.8657C12.1198 14.6547 12.8771 14.6547 13.575 14.8657C13.8448 14.9458 14.125 14.9928 14.4083 15.0048ZM15.1156 10.3273C15.199 9.44801 15.6844 8.96185 16.2198 9.02287C16.7552 9.08489 17.1385 9.67108 17.0552 10.5494C16.8062 12.674 14.9458 12.4029 15.1156 10.3273ZM7.82396 10.5494C7.74062 9.67008 8.12396 9.08389 8.65937 9.02287C9.19479 8.96185 9.67917 9.44801 9.76354 10.3273C9.93229 12.4019 8.07292 12.674 7.82396 10.5494ZM10.9812 7.00723C11.5177 6.94621 12.001 7.43236 12.0865 8.31164C12.2573 10.3863 10.3969 10.6594 10.1479 8.53372C10.0635 7.65444 10.4437 7.06825 10.9812 7.00723ZM14.0062 7.00723C14.5417 7.06925 14.925 7.65544 14.8417 8.53372C14.5927 10.6584 12.7323 10.3883 12.9021 8.31164C12.9854 7.43236 13.4708 6.94621 14.0062 7.00723Z" fill="white"/>
<path d="M17.9561 0.299805C21.6851 0.299805 24.7001 3.22181 24.7002 6.79102C24.7002 9.13214 23.3076 11.8589 21.3867 14.4092C19.4745 16.9479 17.0789 19.2602 15.1562 20.7627C14.3577 21.3865 13.3771 21.7002 12.3955 21.7002C11.4082 21.7001 10.4233 21.382 9.62402 20.751C7.81932 19.3256 5.47849 17.0235 3.5918 14.4717C1.69654 11.9082 0.299805 9.14626 0.299805 6.79199C0.2999 3.22274 3.31495 0.299805 7.04395 0.299805C9.09083 0.29986 10.9851 1.17299 12.2705 2.69727L12.5 2.96875L12.7295 2.69727C14.016 1.17291 15.9093 0.299861 17.9561 0.299805ZM12.498 10.7031C11.6218 10.7031 10.7708 11.0989 10.1416 11.6797C9.51719 12.2562 9.07895 13.0463 9.07324 13.874C9.06041 14.1698 9.1211 14.4377 9.25684 14.6621C9.39272 14.8867 9.59297 15.0509 9.8291 15.1562C10.2925 15.363 10.8947 15.3457 11.5068 15.1523L11.5078 15.1533C12.1502 14.9594 12.8471 14.9594 13.4883 15.1533H13.4893C13.7825 15.2403 14.0875 15.2916 14.3955 15.3047H14.4082C14.9731 15.3047 15.3729 15.1309 15.623 14.8281C15.8039 14.6093 15.8824 14.3521 15.9102 14.1152L15.9229 13.8877V13.5879H15.9014C15.8113 12.8658 15.4054 12.1893 14.8535 11.6797C14.2246 11.0989 13.3742 10.7032 12.498 10.7031ZM12.498 11.3037C13.1978 11.3038 13.9088 11.6229 14.4473 12.1201C14.987 12.6186 15.3213 13.2651 15.3213 13.8877V13.9121C15.3179 14.1234 15.2719 14.3121 15.1611 14.4463C15.0556 14.5739 14.85 14.7026 14.416 14.7041C14.1594 14.6928 13.9056 14.6506 13.6611 14.5781H13.6621C12.9075 14.3499 12.0895 14.35 11.334 14.5781L11.3301 14.5801C10.7991 14.7485 10.3581 14.734 10.0742 14.6074C9.93621 14.5459 9.83573 14.4593 9.77051 14.3516C9.72142 14.2704 9.68579 14.1674 9.6748 14.0381L9.67285 13.9004V13.8877C9.6738 13.2648 10.0087 12.6187 10.5488 12.1201C11.0876 11.6229 11.7983 11.3037 12.498 11.3037ZM16.1143 8.71777C15.7914 8.72233 15.4966 8.87169 15.2734 9.12305C15.0538 9.37045 14.9047 9.71307 14.8398 10.1201L14.8174 10.2988L14.8164 10.3027C14.7705 10.8639 14.8598 11.3319 15.0488 11.6797C15.2382 12.0279 15.5361 12.2646 15.8896 12.3105C16.2463 12.3568 16.5915 12.2002 16.8506 11.8984C17.075 11.6369 17.2407 11.2645 17.3232 10.793L17.3535 10.584V10.5781C17.4433 9.63159 17.0316 8.81469 16.2539 8.72461L16.1143 8.71777ZM8.625 8.72461C7.8468 8.81355 7.43565 9.63123 7.52539 10.5781L7.52637 10.584C7.5933 11.1552 7.77182 11.5995 8.02832 11.8984C8.28738 12.2002 8.63267 12.3569 8.98926 12.3105C9.3426 12.2645 9.64072 12.0277 9.83008 11.6797C10.0191 11.332 10.1081 10.8637 10.0625 10.3027V10.2988L10.0391 10.1201C9.97384 9.71314 9.82494 9.37045 9.60547 9.12305C9.35071 8.83589 9.00211 8.68163 8.625 8.72461ZM8.69336 9.32129C8.85166 9.30325 9.01388 9.36101 9.15625 9.52148C9.30243 9.68625 9.42702 9.96214 9.46484 10.3555C9.50284 10.8298 9.42229 11.1727 9.30273 11.3926C9.18329 11.6122 9.03337 11.6999 8.91211 11.7158C8.79399 11.7312 8.63762 11.6874 8.4834 11.5078C8.32716 11.3257 8.18011 11.0082 8.12207 10.5205C8.04539 9.70943 8.40105 9.35462 8.69336 9.32129ZM16.1855 9.32129C16.4779 9.35538 16.8312 9.7094 16.7568 10.5146C16.6993 11.0056 16.5524 11.3249 16.3955 11.5078C16.2412 11.6876 16.085 11.7312 15.9668 11.7158C15.8455 11.7 15.6946 11.6132 15.5752 11.3936C15.4554 11.1731 15.3761 10.8282 15.415 10.3516L15.4141 10.3506C15.4519 9.95987 15.577 9.68557 15.7227 9.52148C15.8294 9.40129 15.9474 9.33861 16.0664 9.32227L16.1855 9.32129ZM10.9473 6.70898C10.1659 6.79778 9.75882 7.61634 9.84961 8.5625V8.56836C9.91654 9.13984 10.096 9.58385 10.3525 9.88281C10.6117 10.1847 10.9568 10.3414 11.3135 10.2949C11.6669 10.2488 11.9651 10.0122 12.1543 9.66406C12.3431 9.31627 12.4319 8.84806 12.3857 8.28711L12.3848 8.28223C12.3376 7.79697 12.1785 7.39012 11.9277 7.10742C11.6729 6.82018 11.3247 6.66605 10.9473 6.70898ZM14.04 6.70898C13.6632 6.6661 13.3154 6.8205 13.0605 7.10742C12.8409 7.35484 12.6909 7.69739 12.626 8.10449L12.6035 8.2832V8.28711C12.5576 8.84839 12.646 9.31627 12.835 9.66406C13.0243 10.0125 13.3231 10.2501 13.6768 10.2959C14.0334 10.3419 14.3787 10.1847 14.6377 9.88281C14.8622 9.62108 15.0268 9.24826 15.1094 8.77637L15.1396 8.56836L15.1406 8.5625C15.2248 7.67526 14.8681 6.9019 14.1826 6.73438L14.041 6.70898H14.04ZM11.0146 7.30566H11.0156C11.1744 7.28774 11.3364 7.34566 11.4785 7.50586C11.6241 7.66992 11.7482 7.94417 11.7871 8.33496V8.33594C11.8263 8.81206 11.7466 9.15648 11.627 9.37695C11.5076 9.59684 11.3567 9.68438 11.2354 9.7002C11.1173 9.71542 10.9617 9.67173 10.8076 9.49219C10.6507 9.30937 10.5039 8.99024 10.4463 8.49902C10.3707 7.69137 10.722 7.33923 11.0146 7.30566ZM13.9717 7.30566C14.2648 7.33962 14.6196 7.6952 14.543 8.50488C14.4849 8.99252 14.338 9.30995 14.1816 9.49219C14.0273 9.67199 13.8711 9.7155 13.7529 9.7002C13.6317 9.68431 13.4816 9.59746 13.3623 9.37793C13.2428 9.15802 13.1629 8.81481 13.2012 8.33984C13.2385 7.94659 13.3625 7.67062 13.5088 7.50586C13.6511 7.34555 13.8135 7.28781 13.9717 7.30566ZM22.6162 6.79102C22.6162 8.54317 21.5233 10.7985 19.8467 13.0684C18.2842 15.1837 16.2497 17.2654 14.2422 18.8916L13.8418 19.2109C13.0392 19.8377 11.9431 19.8743 11.1104 19.3242L10.9473 19.207L10.6094 18.9346C8.89889 17.5312 6.90817 15.5128 5.31152 13.3701C3.705 11.2141 2.5373 8.98465 2.39746 7.15332L2.38379 6.79199C2.38388 4.32469 4.46537 2.30078 7.04395 2.30078C8.49344 2.30084 9.83292 2.93599 10.7227 4.04199C11.1621 4.5889 11.8403 4.85059 12.5 4.85059C13.1183 4.85055 13.7528 4.62084 14.1914 4.1416L14.2764 4.04199C15.1661 2.93505 16.5055 2.29986 17.9561 2.2998C20.5356 2.2998 22.6161 4.32462 22.6162 6.79102ZM23.2168 6.79102C23.2167 3.97386 20.8472 1.69922 17.9561 1.69922C16.3276 1.69928 14.8146 2.41433 13.8086 3.66602C13.5028 4.04718 13.0108 4.24997 12.5 4.25C12.053 4.25 11.62 4.09509 11.3135 3.80078L11.1904 3.66602L10.9951 3.43848C9.99404 2.32945 8.56965 1.70025 7.04395 1.7002C4.15389 1.7002 1.7833 3.97377 1.7832 6.79199C1.7832 8.89459 3.1065 11.4141 4.83105 13.7285C6.56619 16.057 8.75373 18.239 10.5752 19.6777C11.5749 20.4675 12.9525 20.5183 14.0049 19.8311L14.2109 19.6836C16.386 17.9845 18.6281 15.7285 20.3291 13.4258C21.9143 11.2798 23.0654 9.04552 23.2031 7.16309L23.2168 6.79102Z" stroke="#D84040" stroke-width="0.6"/>
</svg>
