<svg width="25" height="25" viewBox="0 0 25 25" fill="none" xmlns="http://www.w3.org/2000/svg">
<circle cx="12.5" cy="12.5" r="12.5" fill="white"/>
<path d="M9.05762 18.165C9.20699 18.1812 9.35094 18.2312 9.47852 18.3105C9.57416 18.3701 9.65917 18.4449 9.72949 18.5322L9.79492 18.624C10.6727 20.0508 11.1853 21.6703 11.2891 23.3389L11.3037 23.6738V24.834C8.85064 24.5986 6.52518 23.6346 4.625 22.0654L8.23828 18.4561L8.23926 18.4551C8.34503 18.3485 8.4737 18.267 8.61523 18.2168C8.75686 18.1666 8.90822 18.1489 9.05762 18.165ZM1.2959 13.6963L1.63281 13.7109C3.3119 13.8118 4.94237 14.3243 6.37891 15.2061C6.50541 15.2864 6.61209 15.3943 6.69141 15.5215C6.77101 15.6492 6.82065 15.7938 6.83691 15.9434C6.8531 16.0928 6.83542 16.2441 6.78516 16.3857C6.73488 16.5274 6.6536 16.6559 6.54688 16.7617L6.5459 16.7627L2.93359 20.374C1.36504 18.474 0.401433 16.1489 0.166016 13.6963H1.2959ZM15.8975 11.1133C16.1017 11.0934 16.3062 11.1377 16.4834 11.2383L16.5576 11.2842C18.6288 12.7876 21.1066 13.6289 23.665 13.6963H24.834C24.5987 16.1491 23.6343 18.4739 22.0654 20.374L14.8975 13.2061C14.7108 13.0185 14.6055 12.7646 14.6055 12.5C14.6055 12.2354 14.7108 11.9815 14.8975 11.7939L15.2822 11.4092C15.4458 11.2411 15.6641 11.1361 15.8975 11.1133ZM10.1025 11.7939C10.2892 11.9815 10.3945 12.2354 10.3945 12.5C10.3945 12.7646 10.2892 13.0185 10.1025 13.2061L9.71777 13.5908C9.55422 13.7589 9.33592 13.8639 9.10254 13.8867C8.89831 13.9066 8.69381 13.8623 8.5166 13.7617L8.44238 13.7158C6.37126 12.2123 3.89344 11.371 1.33496 11.3037H0.166016C0.401332 8.85084 1.36464 6.52509 2.93359 4.625L10.1025 11.7939ZM22.0654 4.625C23.6345 6.52525 24.5985 8.85067 24.834 11.3037H23.7041C22.0191 11.258 20.3729 10.7973 18.9111 9.96484L18.6211 9.79395C18.4946 9.71362 18.3879 9.60567 18.3086 9.47852C18.229 9.35083 18.1793 9.20623 18.1631 9.05664C18.1469 8.90718 18.1646 8.75594 18.2148 8.61426C18.2651 8.47263 18.3464 8.34408 18.4531 8.23828L18.4541 8.2373L22.0654 4.625ZM11.3037 1.36426C11.3707 3.75477 12.1151 6.07354 13.4443 8.05371L13.7178 8.44531C13.8492 8.6373 13.9084 8.86993 13.8857 9.10156C13.8629 9.33425 13.7584 9.55176 13.5908 9.71484L13.2061 10.0996C13.0185 10.2863 12.7646 10.3906 12.5 10.3906C12.2685 10.3906 12.045 10.3111 11.8672 10.166L11.7939 10.0996L4.625 2.93359C6.52518 1.36474 8.85084 0.400466 11.3037 0.165039V1.36426ZM13.6963 0.165039C16.1487 0.399746 18.4738 1.36366 20.374 2.93164L16.7617 6.54492L16.7607 6.5459C16.6549 6.65246 16.5263 6.73403 16.3848 6.78418C16.2431 6.83435 16.0918 6.85219 15.9424 6.83594C15.793 6.81968 15.649 6.76987 15.5215 6.69043C15.3939 6.61093 15.2856 6.50297 15.2051 6.37598C14.3273 4.94917 13.8147 3.32973 13.7109 1.66113L13.6963 1.32617V0.165039ZM13.6963 23.6348C13.6258 21.0839 12.784 18.6139 11.2822 16.5508C11.1515 16.3588 11.0916 16.1268 11.1143 15.8955C11.1371 15.6628 11.2419 15.4456 11.4092 15.2822L11.7939 14.8975C11.9815 14.7108 12.2354 14.6055 12.5 14.6055C12.7646 14.6055 13.0185 14.7108 13.2061 14.8975L20.374 22.0645C18.474 23.6333 16.1491 24.5977 13.6963 24.833V23.6348Z" fill="#D84040" stroke="#D84040" stroke-width="0.3"/>
</svg>
