<svg width="25" height="20" viewBox="0 0 25 20" fill="none" xmlns="http://www.w3.org/2000/svg">
<path d="M12.4932 0C6.41364 0 0.176136 1.28683 0 10.3663C0.0534091 13.0083 0.638637 16.4899 1.82614 18.3115C2.58409 19.4731 3.92727 20.0944 5.33636 19.9339C6.73409 19.7746 7.89773 18.8735 8.37159 17.5821C9.05341 15.7173 10.3682 14.8401 12.4909 14.8242C14.5875 14.8412 15.9227 15.7674 16.6307 17.6367C17.5443 20.05 19.9398 19.9999 20.0864 19.9999C21.325 19.9999 22.4716 19.3969 23.15 18.3638C24.3545 16.5354 24.9466 13.0299 25 10.3231C24.8273 1.23904 18.0795 0.00113797 12.4932 0.00113797V0ZM7.05227 11.0968L6.0875 10.1308L5.12273 11.0968C4.67954 11.5405 3.96023 11.5417 3.51591 11.0968C3.07159 10.6519 3.07273 9.93169 3.51591 9.48796L4.48068 8.52198L3.51591 7.55601C3.07159 7.11113 3.07273 6.39092 3.51591 5.94718C3.95909 5.50345 4.67841 5.50231 5.12273 5.94718L6.0875 6.91316L7.05227 5.94718C7.49545 5.50345 8.21477 5.50231 8.65909 5.94718C9.10341 6.39206 9.10227 7.11227 8.65909 7.55601L7.69432 8.52198L8.65909 9.48796C9.10341 9.93283 9.10227 10.653 8.65909 11.0968C8.21591 11.5405 7.49659 11.5417 7.05227 11.0968ZM17.5511 3.51006C18.4955 3.51006 19.2614 4.27692 19.2614 5.22242C19.2614 6.16791 18.4955 6.93478 17.5511 6.93478C16.6068 6.93478 15.8409 6.16791 15.8409 5.22242C15.8409 4.27692 16.6068 3.51006 17.5511 3.51006ZM14.2614 10.2332C13.317 10.2332 12.5511 9.46634 12.5511 8.52084C12.5511 7.57535 13.317 6.80848 14.2614 6.80848C15.2057 6.80848 15.9716 7.57535 15.9716 8.52084C15.9716 9.46634 15.2057 10.2332 14.2614 10.2332ZM17.5511 13.5328C16.6068 13.5328 15.8409 12.7659 15.8409 11.8204C15.8409 10.8749 16.6068 10.108 17.5511 10.108C18.4955 10.108 19.2614 10.8749 19.2614 11.8204C19.2614 12.7659 18.4955 13.5328 17.5511 13.5328ZM20.8409 10.2332C19.8966 10.2332 19.1307 9.46634 19.1307 8.52084C19.1307 7.57535 19.8966 6.80848 20.8409 6.80848C21.7852 6.80848 22.5511 7.57535 22.5511 8.52084C22.5511 9.46634 21.7852 10.2332 20.8409 10.2332Z" fill="#D84040"/>
<path d="M17.5511 13.5328C16.6068 13.5328 15.8409 12.7659 15.8409 11.8204C15.8409 10.8749 16.6068 10.108 17.5511 10.108C18.4955 10.108 19.2614 10.8749 19.2614 11.8204C19.2614 12.7659 18.4955 13.5328 17.5511 13.5328Z" fill="white"/>
<path d="M14.2614 10.2332C13.317 10.2332 12.5511 9.46634 12.5511 8.52084C12.5511 7.57535 13.317 6.80848 14.2614 6.80848C15.2057 6.80848 15.9716 7.57535 15.9716 8.52084C15.9716 9.46634 15.2057 10.2332 14.2614 10.2332Z" fill="white"/>
<path d="M17.5511 3.51006C18.4955 3.51006 19.2614 4.27692 19.2614 5.22242C19.2614 6.16791 18.4955 6.93478 17.5511 6.93478C16.6068 6.93478 15.8409 6.16791 15.8409 5.22242C15.8409 4.27692 16.6068 3.51006 17.5511 3.51006Z" fill="white"/>
<path d="M20.8409 10.2332C19.8966 10.2332 19.1307 9.46634 19.1307 8.52084C19.1307 7.57535 19.8966 6.80848 20.8409 6.80848C21.7852 6.80848 22.5511 7.57535 22.5511 8.52084C22.5511 9.46634 21.7852 10.2332 20.8409 10.2332Z" fill="white"/>
<path d="M7.05227 11.0968L6.0875 10.1308L5.12273 11.0968C4.67954 11.5405 3.96023 11.5417 3.51591 11.0968C3.07159 10.6519 3.07273 9.93169 3.51591 9.48796L4.48068 8.52198L3.51591 7.55601C3.07159 7.11113 3.07273 6.39092 3.51591 5.94718C3.95909 5.50345 4.67841 5.50231 5.12273 5.94718L6.0875 6.91316L7.05227 5.94718C7.49545 5.50345 8.21477 5.50231 8.65909 5.94718C9.10341 6.39206 9.10227 7.11227 8.65909 7.55601L7.69432 8.52198L8.65909 9.48796C9.10341 9.93283 9.10227 10.653 8.65909 11.0968C8.21591 11.5405 7.49659 11.5417 7.05227 11.0968Z" fill="white"/>
<path d="M12.4932 0.151367C15.2809 0.151367 18.3293 0.461099 20.6992 1.88379C22.9817 3.25411 24.6567 5.67067 24.8369 9.91016L24.8496 10.3262C24.8227 11.6694 24.663 13.2105 24.3604 14.6416C24.0566 16.0779 23.6115 17.3901 23.0244 18.2812C22.3745 19.271 21.2754 19.8496 20.0859 19.8496C19.9338 19.8497 17.6451 19.8937 16.7705 17.584C16.4082 16.6273 15.8811 15.9004 15.166 15.4121C14.4513 14.924 13.5624 14.6825 12.4922 14.6738H12.4902C11.409 14.6819 10.5179 14.9097 9.80762 15.3848C9.09634 15.8606 8.57971 16.5752 8.23047 17.5303C7.77673 18.7668 6.66238 19.6321 5.31934 19.7852C4.04972 19.9297 2.83937 19.4136 2.09473 18.4316L1.95215 18.2295C1.37333 17.3416 0.934737 16.0367 0.634766 14.6152C0.335892 13.1989 0.17727 11.6799 0.150391 10.3691C0.237726 5.86838 1.8233 3.32936 4.1123 1.90527C6.3794 0.494984 9.36258 0.161507 12.3506 0.151367H12.4932ZM19.1113 11.8203C19.1113 12.6831 18.4121 13.3828 17.5508 13.3828C16.7436 13.3826 16.0791 12.768 15.999 11.9805L15.9912 11.8203C15.9913 10.9576 16.6897 10.258 17.5508 10.2578C18.412 10.2578 19.1113 10.9575 19.1113 11.8203ZM8.66699 5.75293C8.19498 5.3676 7.51494 5.36834 7.04395 5.75293L6.94629 5.84082L6.08691 6.70117L5.22852 5.84082C4.757 5.36908 4.01237 5.34106 3.50781 5.75293L3.41016 5.84082C2.90858 6.34302 2.90725 7.15858 3.41016 7.66211L4.26855 8.52148L3.41016 9.38184C2.90858 9.88404 2.90725 10.6996 3.41016 11.2031C3.88168 11.6749 4.62631 11.7029 5.13086 11.291L5.22852 11.2031L6.08691 10.3418L6.94629 11.2031C7.41795 11.6751 8.16337 11.7033 8.66797 11.291L8.76562 11.2031C9.23591 10.7322 9.26614 9.98577 8.85352 9.47949L8.76562 9.38184L7.90625 8.52148L8.76562 7.66211C9.23566 7.19134 9.26573 6.44568 8.85352 5.93945L8.76562 5.84082L8.66699 5.75293ZM7.1582 6.05273C7.54279 5.6678 8.16712 5.66701 8.55273 6.05273C8.91427 6.41472 8.9366 6.98744 8.62109 7.375L8.55273 7.4502L7.58789 8.41602L7.48242 8.52246L7.58789 8.62793L8.55273 9.59375C8.91431 9.95578 8.93672 10.5284 8.62109 10.916L8.55273 10.9912C8.16806 11.376 7.54373 11.3771 7.1582 10.9912L6.19336 10.0244L6.08789 9.91895L5.98145 10.0244L5.0166 10.9912C4.63197 11.3761 4.00764 11.377 3.62207 10.9912L3.55469 10.916C3.25909 10.5535 3.25979 10.0308 3.55469 9.66895L3.62207 9.59375L4.58691 8.62793L4.69238 8.52246L4.58691 8.41602L3.62207 7.4502L3.55469 7.375C3.25916 7.01245 3.25971 6.48976 3.55469 6.12793L3.62207 6.05273C4.0067 5.66788 4.63104 5.66693 5.0166 6.05273L5.98145 7.01953L6.08789 7.125L6.19336 7.01953L7.1582 6.05273ZM15.8213 8.52051C15.8213 9.38322 15.1229 10.0828 14.2617 10.083C13.4543 10.083 12.789 9.46844 12.709 8.68066L12.7012 8.52051C12.7014 7.65783 13.4005 6.95801 14.2617 6.95801C15.1227 6.9582 15.8211 7.65795 15.8213 8.52051ZM22.4014 8.52051C22.4014 9.38334 21.7021 10.083 20.8408 10.083C19.9796 10.083 19.2803 9.38331 19.2803 8.52051C19.2805 7.65786 19.9797 6.95806 20.8408 6.95801C21.702 6.95801 22.4012 7.65783 22.4014 8.52051ZM19.1113 5.22266C19.1112 6.08538 18.412 6.78516 17.5508 6.78516C16.7434 6.78498 16.0788 6.16967 15.999 5.38184L15.9912 5.22266C15.9912 4.35994 16.6896 3.66035 17.5508 3.66016C18.4121 3.66016 19.1113 4.35983 19.1113 5.22266ZM19.4111 11.8203C19.4111 10.7922 18.5781 9.95801 17.5508 9.95801C16.5236 9.9582 15.6905 10.7923 15.6904 11.8203C15.6904 12.8484 16.5236 13.6824 17.5508 13.6826C18.5781 13.6826 19.4111 12.8485 19.4111 11.8203ZM16.1221 8.52051C16.1219 7.49262 15.2888 6.6584 14.2617 6.6582C13.2345 6.6582 12.4015 7.4925 12.4014 8.52051C12.4014 9.54867 13.2344 10.3828 14.2617 10.3828C15.2248 10.3826 16.0172 9.64979 16.1123 8.71094L16.1221 8.52051ZM22.7012 8.52051C22.701 7.4925 21.868 6.6582 20.8408 6.6582C19.8136 6.65825 18.9807 7.49253 18.9805 8.52051C18.9805 9.54864 19.8135 10.3828 20.8408 10.3828C21.804 10.3828 22.5963 9.64988 22.6914 8.71094L22.7012 8.52051ZM19.4111 5.22266C19.4111 4.19449 18.5781 3.36035 17.5508 3.36035C16.5236 3.36054 15.6904 4.19461 15.6904 5.22266C15.6906 6.25059 16.5237 7.08477 17.5508 7.08496C18.5138 7.08496 19.3059 6.35174 19.4014 5.41309L19.4111 5.22266Z" stroke="#D84040" stroke-width="0.3"/>
</svg>
